<svg width="21" height="30" viewBox="0 0 21 30" fill='none' xmlns="http://www.w3.org/2000/svg">
<path d="M21 15C21 15.5763 20.7316 16.0678 20.174 16.5085L4.06784 29.4407C3.63422 29.8136 3.05604 30 2.39528 30C1.05309 30 -3.18569e-06 29.1525 -3.13663e-06 28.0339C-3.11285e-06 27.4915 0.268433 27 0.72271 26.6271L15.2389 15L0.722711 3.37288C0.268434 2.98305 -2.0166e-06 2.49152 -1.99282e-06 1.94915C-1.94451e-06 0.847456 1.05309 -1.74381e-06 2.39528 -1.62648e-06C3.05605 -1.56871e-06 3.63422 0.186439 4.06784 0.559321L20.174 13.4915C20.7316 13.9322 20.9794 14.4237 21 15Z" />
</svg>
